<?xml version="1.0" encoding="UTF-8" standalone="yes"?>
<svg xmlns="http://www.w3.org/2000/svg" xmlns:xlink="http://www.w3.org/1999/xlink" width="64px" height="64px" viewBox="0 0 240 240" version="1.1" fill="#000000">
  <g id="surface425743">
    <path style=" stroke:none;fill-rule:nonzero;fill:#000000;fill-opacity:1;" d="M 33 48 C 24.75 48 18 54.75 18 63 L 18 177 C 18 185.25 24.75 192 33 192 L 207 192 C 215.25 192 222 185.25 222 177 L 222 63 C 222 54.75 215.25 48 207 48 Z M 33 54 L 207 54 C 212.003906 54 216 57.996094 216 63 L 216 177 C 216 182.003906 212.003906 186 207 186 L 33 186 C 27.996094 186 24 182.003906 24 177 L 24 63 C 24 57.996094 27.996094 54 33 54 Z M 166.6875 72 C 153.679688 72 141.488281 77.132812 132.371094 86.460938 L 136.664062 90.65625 C 144.644531 82.496094 155.304688 78 166.6875 78 C 178.070312 78 188.730469 82.5 196.710938 90.660156 L 201 86.46875 C 191.878906 77.136719 179.695312 72 166.6875 72 Z M 42 87 C 38.722656 87 36 89.722656 36 93 L 36 111 C 36 114.277344 38.722656 117 42 117 L 63 117 C 66.277344 117 69 114.277344 69 111 L 69 93 C 69 89.722656 66.277344 87 63 87 Z M 166.6875 90 C 158.480469 90 150.800781 93.269531 145.082031 99.203125 L 149.40625 103.371094 C 153.984375 98.617188 160.125 96 166.6875 96 C 173.25 96 179.382812 98.617188 183.960938 103.371094 L 188.285156 99.203125 C 182.566406 93.269531 174.894531 90 166.6875 90 Z M 42 93 L 63 93 L 63 111 L 42 111 Z M 166.6875 108 C 163.371094 108 160.6875 110.683594 160.6875 114 C 160.6875 117.316406 163.371094 120 166.6875 120 C 170.003906 120 172.6875 117.316406 172.6875 114 C 172.6875 110.683594 170.003906 108 166.6875 108 Z M 39 135 C 37.34375 135 36 136.34375 36 138 C 36 139.65625 37.34375 141 39 141 C 40.65625 141 42 139.65625 42 138 C 42 136.34375 40.65625 135 39 135 Z M 48 135 C 46.34375 135 45 136.34375 45 138 C 45 139.65625 46.34375 141 48 141 C 49.65625 141 51 139.65625 51 138 C 51 136.34375 49.65625 135 48 135 Z M 57 135 C 55.34375 135 54 136.34375 54 138 C 54 139.65625 55.34375 141 57 141 C 58.65625 141 60 139.65625 60 138 C 60 136.34375 58.65625 135 57 135 Z M 66 135 C 64.34375 135 63 136.34375 63 138 C 63 139.65625 64.34375 141 66 141 C 67.65625 141 69 139.65625 69 138 C 69 136.34375 67.65625 135 66 135 Z M 84 135 C 82.34375 135 81 136.34375 81 138 C 81 139.65625 82.34375 141 84 141 C 85.65625 141 87 139.65625 87 138 C 87 136.34375 85.65625 135 84 135 Z M 93 135 C 91.34375 135 90 136.34375 90 138 C 90 139.65625 91.34375 141 93 141 C 94.65625 141 96 139.65625 96 138 C 96 136.34375 94.65625 135 93 135 Z M 102 135 C 100.34375 135 99 136.34375 99 138 C 99 139.65625 100.34375 141 102 141 C 103.65625 141 105 139.65625 105 138 C 105 136.34375 103.65625 135 102 135 Z M 111 135 C 109.34375 135 108 136.34375 108 138 C 108 139.65625 109.34375 141 111 141 C 112.65625 141 114 139.65625 114 138 C 114 136.34375 112.65625 135 111 135 Z M 129 135 C 127.34375 135 126 136.34375 126 138 C 126 139.65625 127.34375 141 129 141 C 130.65625 141 132 139.65625 132 138 C 132 136.34375 130.65625 135 129 135 Z M 138 135 C 136.34375 135 135 136.34375 135 138 C 135 139.65625 136.34375 141 138 141 C 139.65625 141 141 139.65625 141 138 C 141 136.34375 139.65625 135 138 135 Z M 147 135 C 145.34375 135 144 136.34375 144 138 C 144 139.65625 145.34375 141 147 141 C 148.65625 141 150 139.65625 150 138 C 150 136.34375 148.65625 135 147 135 Z M 156 135 C 154.34375 135 153 136.34375 153 138 C 153 139.65625 154.34375 141 156 141 C 157.65625 141 159 139.65625 159 138 C 159 136.34375 157.65625 135 156 135 Z M 174 135 C 172.34375 135 171 136.34375 171 138 C 171 139.65625 172.34375 141 174 141 C 175.65625 141 177 139.65625 177 138 C 177 136.34375 175.65625 135 174 135 Z M 183 135 C 181.34375 135 180 136.34375 180 138 C 180 139.65625 181.34375 141 183 141 C 184.65625 141 186 139.65625 186 138 C 186 136.34375 184.65625 135 183 135 Z M 192 135 C 190.34375 135 189 136.34375 189 138 C 189 139.65625 190.34375 141 192 141 C 193.65625 141 195 139.65625 195 138 C 195 136.34375 193.65625 135 192 135 Z M 201 135 C 199.34375 135 198 136.34375 198 138 C 198 139.65625 199.34375 141 201 141 C 202.65625 141 204 139.65625 204 138 C 204 136.34375 202.65625 135 201 135 Z M 39 165 C 37.34375 165 36 166.34375 36 168 C 36 169.65625 37.34375 171 39 171 C 40.65625 171 42 169.65625 42 168 C 42 166.34375 40.65625 165 39 165 Z M 51 165 C 49.34375 165 48 166.34375 48 168 C 48 169.65625 49.34375 171 51 171 C 52.65625 171 54 169.65625 54 168 C 54 166.34375 52.65625 165 51 165 Z M 63 165 C 61.34375 165 60 166.34375 60 168 C 60 169.65625 61.34375 171 63 171 C 64.65625 171 66 169.65625 66 168 C 66 166.34375 64.65625 165 63 165 Z M 75 165 C 73.34375 165 72 166.34375 72 168 C 72 169.65625 73.34375 171 75 171 C 76.65625 171 78 169.65625 78 168 C 78 166.34375 76.65625 165 75 165 Z M 87 165 C 85.34375 165 84 166.34375 84 168 C 84 169.65625 85.34375 171 87 171 C 88.65625 171 90 169.65625 90 168 C 90 166.34375 88.65625 165 87 165 Z M 99 165 C 97.34375 165 96 166.34375 96 168 C 96 169.65625 97.34375 171 99 171 C 100.65625 171 102 169.65625 102 168 C 102 166.34375 100.65625 165 99 165 Z M 111 165 C 109.34375 165 108 166.34375 108 168 C 108 169.65625 109.34375 171 111 171 C 112.65625 171 114 169.65625 114 168 C 114 166.34375 112.65625 165 111 165 Z M 144 165 C 142.34375 165 141 166.34375 141 168 C 141 169.65625 142.34375 171 144 171 C 145.65625 171 147 169.65625 147 168 C 147 166.34375 145.65625 165 144 165 Z M 156 165 C 154.34375 165 153 166.34375 153 168 C 153 169.65625 154.34375 171 156 171 C 157.65625 171 159 169.65625 159 168 C 159 166.34375 157.65625 165 156 165 Z M 156 165 "/>
  </g>
</svg>
